<?xml version="1.0" encoding="utf-8" ?><svg xmlns="http://www.w3.org/2000/svg" xmlns:xlink="http://www.w3.org/1999/xlink" width="512" height="180" viewBox="50 170 412 140"><path fill="#062E65" transform="scale(0.5 0.5)" d="M704.256 437.25C708.808 437.193 722.552 436.011 726.168 438.156C729.007 439.84 759.016 488.544 764.298 496.561C766.527 499.945 770.404 507.145 773.506 509.295C774.584 510.042 774.805 510.022 775.978 509.748C777.486 507.964 776.593 495.61 776.577 492.587L776.463 458.996C776.422 454.352 775.968 443.219 777.02 439.384C779.172 436.548 798.757 436.832 801.893 437.882C805.048 440.953 803.583 472.554 803.579 478.955L803.631 524.579C803.67 533.205 803.787 541.839 803.684 550.462C803.62 555.837 802.663 556.982 797.294 557.097C794.067 557.021 775.696 558.047 773.707 556.091C764.312 546.845 734.154 489.121 726.393 483.809C723.507 485.734 728.49 550.795 723.615 556.809C720.704 558.45 702.845 558.757 700.382 556.442C698.986 551.362 699.672 536.324 699.731 530.45L699.835 501.341L699.769 464.674C699.715 459.793 698.745 442.409 700.37 438.787C701.677 437.429 702.376 437.526 704.256 437.25Z"/><path fill="#87368E" transform="scale(0.5 0.5)" d="M611.809 437.598C615.87 437.251 634.002 436.66 638.192 438.569C638.665 438.784 640.705 443.503 640.963 444.377C644.156 455.2 680.061 549.561 680.16 555.13C679.598 556.005 679.452 556.584 678.555 556.999C675.082 558.604 661.684 557.921 658.148 557.141C653.04 556.013 652.499 548.577 651.065 544.446C649.863 540.981 648.924 538.834 647.164 535.48C642.35 534.573 636.922 534.719 632.003 534.758C621.021 534.979 610.034 534.952 599.053 534.678C595.865 541.326 594.111 551.639 589.412 556.654C586.882 559.353 565.28 559.055 562.732 556.103C563.777 549.878 570.597 535.236 573.423 528.566L589.919 489.1C593.054 481.604 608.476 440.989 611.809 437.598ZM607.602 511.732C612.961 511.892 618.323 511.952 623.684 511.914C627.96 511.899 633.957 512.053 638.09 511.649C636.784 506.736 625.926 474.421 623.426 472.925C623.243 472.816 623.034 472.757 622.838 472.672L607.602 511.732Z"/><path fill="#87368E" transform="scale(0.5 0.5)" d="M218.156 438.179C221.866 438.131 227.361 438.211 230.774 438.057C241.339 437.579 240.824 440.03 243.884 449.06C245.009 452.381 246.345 456.485 247.508 459.954C251.686 472.028 255.785 484.129 259.807 496.256C261.345 500.877 266.61 520.177 270.297 521.663C271.756 521.07 273.143 519.08 273.631 517.648C281.172 495.496 288.545 473.256 296.13 451.106C297.535 447.003 298.486 442.285 301.223 438.92C303.796 437.405 309.581 437.994 312.606 438.127C315.94 438.274 323.279 436.977 325.226 439.993C325.405 444.966 318.69 461.704 316.752 467.135C307.22 495.206 295.734 527.215 285.601 555.449C284.594 558.255 276.599 557.446 273.906 557.334C268.482 557.107 259.996 558.89 255.29 555.782C253.473 552.024 251.434 545.391 249.999 541.264L240.801 514.721L222.236 460.928C220.974 457.291 215.22 442.888 215.437 440.225C216.536 438.512 216.023 439.077 218.156 438.179Z"/><path fill="#F68D39" transform="scale(0.5 0.5)" d="M388.926 438.111C395.812 437.967 403.155 437.97 410.005 438.511C412.836 442.794 417.703 457.125 419.725 462.656L434.465 503.225C436.236 508.227 439.094 517.906 442.059 521.762C443.537 522.588 443.459 522.489 445.175 522.371C447.893 520.662 454.489 500.463 456.118 496.009C461.316 481.731 466.653 467.505 472.127 453.331C473.417 449.987 475.855 442.131 477.653 439.788C481.296 437.437 498.49 436.746 501.513 440.728C502.007 443.287 494.094 461.079 492.509 465.172C488.196 475.607 458.801 552.885 456.006 555.864C454.785 557.165 452.22 557.456 450.568 557.653C446.052 558.191 435.049 559.027 431.381 556.189C428.802 551.025 426.425 543.942 424.261 538.386L411.911 506.52C404.18 486.149 396.237 465.884 388.244 445.617C386.955 442.349 385.952 440.593 388.926 438.111Z"/><defs><linearGradient id="gradient_0" gradientUnits="userSpaceOnUse" x1="441.61288" y1="342.43323" x2="455.20673" y2="441.07727"><stop offset="0" stop-color="#E66A2C"/><stop offset="1" stop-color="#DE4E38"/></linearGradient></defs><path fill="url(#gradient_0)" transform="scale(0.5 0.5)" d="M439.37 342.224C492.751 338.141 543.625 362.675 570.707 409.545C572.707 413.006 578.714 421.593 576.979 425.093C573.967 426.755 570.055 425.905 566.554 425.554C564.809 423.337 562.174 418.342 560.714 415.733C541.784 381.913 505.361 357.236 466.477 353.527C450.682 351.225 434.12 353.134 418.871 357.608C391.496 365.761 367.625 382.814 351.037 406.066C346.347 412.703 343.073 418.987 339.21 426.086C336.127 426.087 331.025 426.407 328.392 425.023L328.131 424.119C329.57 417.916 340.294 401.12 344.45 395.87C370.124 363.435 398.75 347.717 439.37 342.224Z"/><path fill="#DF535C" transform="scale(0.5 0.5)" d="M345.071 438.598C349.987 438.222 368.265 437.615 369.084 439.854C370.598 443.997 370.046 482.17 370.047 487.313L370.19 550.664C370.164 554.241 370.474 554.614 367.93 557.129C363.72 557.744 347.713 558.201 344.226 555.925C342.823 551.219 343.334 536.514 343.32 531.183L343.402 492.976C343.476 476.044 343.474 458.949 343.402 442.004C343.394 440.089 343.947 439.866 345.071 438.598Z"/><path fill="#DF535C" transform="scale(0.5 0.5)" d="M523.019 437.682C528.674 437.517 535.295 436.919 540.76 438.245C542.774 438.733 543.134 444.605 543.022 446.135C542.109 458.573 544.598 552.147 541.904 556.929C540.524 558.051 539.68 558.011 537.923 558.291C533.114 558.176 522.721 559.304 518.707 556.821C517.971 556.366 518.016 541.476 518.013 539.782L517.988 513.443L517.944 468.256C517.928 463.792 517.282 441.408 518.698 439.305C520.328 438.004 520.875 438.073 523.019 437.682Z"/><path fill="#FACB4A" transform="scale(0.5 0.5)" d="M351.321 426.1C359.105 405.057 384.579 382.286 404.632 373.062C432.408 360.134 464.213 358.909 492.901 369.663C513.536 377.314 531.467 390.863 544.463 408.625C546.807 411.77 554.13 421.168 552.889 425.05C550.449 426.704 544.519 425.785 541.491 425.318L540.001 423.597C539.691 423.111 538.736 421.987 538.329 421.478L536.994 419.278C510.214 376.749 447.933 360.3 404.432 386.663C399.508 388.71 392.167 394.201 388.042 397.724C383.902 401.193 380.053 404.997 376.535 409.097C372.058 414.285 368.341 420.45 363.706 425.375C363.003 426.123 353.093 426.055 351.321 426.1Z"/><path fill="#90C3E8" transform="scale(0.5 0.5)" d="M416.185 392.262C453.856 377.587 489.637 384.303 518.377 412.884C520.409 415.355 522.514 417.767 524.687 420.116L525.092 420.639C526.109 422.02 526.749 422.546 526.685 424.233C524.901 426.542 520.449 425.699 517.567 425.825C513.199 423.36 506.984 416.248 502.589 412.724C467.8 384.831 418.224 391.172 390.815 425.521C387.812 425.656 382.95 426.045 380.214 425.364C377.391 421.571 391.604 408.951 394.808 406.047L396.913 404.27L401.319 400.83C406.707 397.236 410.341 395.011 416.185 392.262Z"/><path fill="#393339" transform="scale(0.5 0.5)" d="M882.739 454.902C883.635 456.174 885.201 465.109 887.574 469.469C893.711 480.745 903.614 486.472 915.422 490.298C903.381 494.15 891.705 501.656 886.746 514.031C885.54 517.041 884.663 522.934 883.177 525.43L882.691 523.87C878.31 502.687 866.179 494.557 846.094 490.692C868.127 485.835 877.949 477.081 882.739 454.902Z"/><path fill="#393339" transform="scale(0.5 0.5)" d="M141.601 455.292C148.002 477.807 152.252 484.232 175.682 489.831C161.755 492.647 152.467 497.669 145.662 510.699C144.514 512.896 142.223 521.735 141.025 522.57C136.941 500.702 125.624 494.025 105.445 489.341C127.547 485.407 136.085 477.234 141.601 455.292Z"/><path fill="#393339" transform="scale(0.5 0.5)" d="M843.799 380.41C845.367 382.804 845.246 389.178 849.493 393.554C854.567 398.783 859.117 401.144 866.281 401.81C852.397 406.066 847.652 409.803 843.986 424.499L843.596 424.43C840.774 409.778 835.414 406.494 821.89 401.984C836.532 398.331 839.675 394.613 843.799 380.41Z"/><path fill="#393339" transform="scale(0.5 0.5)" d="M180.816 381.887C181.816 382.898 183.59 391.377 185.104 393.686C189.083 399.756 196.268 401.662 202.765 403.41C188.007 408.252 185.641 410.374 180.664 425.027C177.012 410.648 172.177 406.772 157.923 403.345C172.466 400.481 177.075 395.832 180.816 381.887Z"/><path fill="#FEFEFE" fill-opacity="0.25882354" transform="scale(0.5 0.5)" d="M388.042 397.724C392.167 394.201 399.508 388.71 404.432 386.663C407.142 386.712 412.242 386.69 414.557 387.673C415.913 389.25 415.718 390.042 416.185 392.262C410.341 395.011 406.707 397.236 401.319 400.83C400.807 398.609 399.942 394.236 398.079 393.016C393.148 393.919 390.683 400.577 395.731 403.26C396.125 403.597 396.519 403.933 396.913 404.27L394.808 406.047C387.466 404.132 390.239 403.269 388.042 397.724Z"/><path fill="#FEFEFE" fill-opacity="0.34901962" transform="scale(0.5 0.5)" d="M525.092 420.639C529.544 418.329 532.221 421.902 538.329 421.478C538.736 421.987 539.691 423.111 540.001 423.597C539.782 427.67 531.488 431.917 527.978 432.145C525.392 430.761 525.776 429.026 525.536 426.251L524.522 426.125C521.812 426.143 520.309 426.116 517.567 425.825C520.449 425.699 524.901 426.542 526.685 424.233C526.749 422.546 526.109 422.02 525.092 420.639Z"/><path fill="#FEFEFE" fill-opacity="0.19607843" transform="scale(0.5 0.5)" d="M518.992 408.426L519.529 407.369L520.487 407.728L520.911 407.595L519.227 404.83L519.939 404.76C521.722 406.362 525.903 408.404 526.838 409.526C530.174 413.533 528.903 420.896 536.994 419.278L538.329 421.478C532.221 421.902 529.544 418.329 525.092 420.639L524.687 420.116C525.46 419.32 525.624 419.305 526.675 419.014L527.637 418.757L527.902 418.111L526.01 417.843C524.573 416.232 524.469 414.162 522.051 413.413C521.197 413.148 520.781 412.692 520.141 412.107C519.957 410.741 519.951 410.492 519.393 409.277L518.992 408.426Z"/><path fill="#FEFEFE" fill-opacity="0.13333334" transform="scale(0.5 0.5)" d="M524.522 426.125L525.536 426.251C525.776 429.026 525.392 430.761 527.978 432.145C531.488 431.917 539.782 427.67 540.001 423.597L541.491 425.318L541.087 426.064C536.685 434.348 538.997 436.565 528.006 436.229C526.567 433.708 522.547 428.545 524.522 426.125Z"/><path fill="#FEFEFE" fill-opacity="0.34901962" transform="scale(0.5 0.5)" d="M396.913 404.27C396.519 403.933 396.125 403.597 395.731 403.26C390.683 400.577 393.148 393.919 398.079 393.016C399.942 394.236 400.807 398.609 401.319 400.83L396.913 404.27ZM399.237 401.73C400.441 399.862 400.175 400.877 399.893 398.537C398.51 396.762 398.163 396.712 395.945 396.548C395.211 399.018 395.002 398.389 395.633 400.48C396.551 401.314 398.032 401.759 399.237 401.73Z"/><path fill="#FEFEFE" fill-opacity="0.3882353" transform="scale(0.5 0.5)" d="M395.945 396.548C398.163 396.712 398.51 396.762 399.893 398.537C400.175 400.877 400.441 399.862 399.237 401.73C398.032 401.759 396.551 401.314 395.633 400.48C395.002 398.389 395.211 399.018 395.945 396.548Z"/><path fill="#FEFEFE" fill-opacity="0.18431373" transform="scale(0.5 0.5)" d="M346.39 425.118C348.421 425.204 348.557 424.873 349.957 425.83C349.33 428.749 344.204 430.956 341.814 433.638C340.82 433.94 340.582 433.882 339.53 433.966C337.078 432.513 337.599 430.91 338.953 428.751C340.508 426.269 343.698 425.571 346.39 425.118Z"/><path fill="#FEFEFE" fill-opacity="0.12941177" transform="scale(0.5 0.5)" d="M518.377 412.884C518.376 411.378 518.374 411.335 518.018 409.874C516.586 409.068 516.583 409.149 515.538 407.915L515.746 406.736L516.575 406.162L516.854 407.102C517.709 407.81 518.001 407.936 518.992 408.426L519.393 409.277C519.951 410.492 519.957 410.741 520.141 412.107C520.781 412.692 521.197 413.148 522.051 413.413C524.469 414.162 524.573 416.232 526.01 417.843L527.902 418.111L527.637 418.757L526.675 419.014C525.624 419.305 525.46 419.32 524.687 420.116C522.514 417.767 520.409 415.355 518.377 412.884Z"/></svg>